<?xml version="1.0" encoding="UTF-8"?>
<svg id="Layer_1" xmlns="http://www.w3.org/2000/svg" version="1.1" viewBox="0 0 668.9230756 219.64935">
  <!-- Generator: Adobe Illustrator 30.1.0, SVG Export Plug-In . SVG Version: 2.1.1 Build 136)  -->
  <path d="M518.1086795,132.0581964c5.246055,2.3810127,10.573076,2.2385274,14.4882137-1.8452836l-4.8207896-7.5186012,10.1464219,5.7259124c20.7373427-2.2624426,39.3869007-14.5126654,48.6242269-33.3873699l-2.8959108-9.0461757,6.907955,5.3790503c5.9006045-1.1102432,11.3662496-1.2294326,17.1092338-.4027056,19.4435115,2.7989764,38.0740898,5.0155897,57.5944537,5.7349954,1.5072106.0555469,3.5264427,1.676171,3.6520377,2.9218493.1648141,1.6346612-2.0813227,3.8056692-4.2117122,3.6910116-19.7282132-1.0617723-38.4871445-3.3045676-57.9905945-6.032817-4.9717645-.6954776-9.6732977-.5889347-14.6036263.4808029-8.8213383,18.5833737-25.3198627,30.8670916-45.4367845,35.434589-8.9154831,2.0242384-17.9622079,4.0141176-25.0129864,9.9094266-21.394775,17.888636-9.3773389,25.4209623-21.1024308,34.9459464-2.9559527,2.4012948-7.1417391,3.3878854-10.4053032,2.0747296-3.8259076-1.5394252-5.0748479-5.7426137-5.4110959-9.9170002-.7943196-9.8611649-.5687297-18.6558121,4.2130075-27.8157225-6.2580522,2.5557474-8.6952162,7.5368908-11.1028573,13.0296483-7.938396,18.1105413-1.4097697,16.7932279-9.1416778,30.3057333-4.3396164,7.5840388-11.328701,3.793871-16.9087078,4.8400273-5.3730906,1.0073631-10.599261,7.8147453-17.3529793,2.6313162-4.7323831-3.6320692-4.9650736-9.1517003-5.3303294-15.1905789-.8316337-13.7496386-1.2376745-27.1328596,2.2301313-40.6261728-5.0655995-1.7543136-8.7023245-5.2597498-9.5698907-9.1835521-1.1712906-5.2974777.3313403-10.2572414,4.2931408-13.7610714,7.6574841-6.7723052,15.6887744-11.8501041,24.7785848-17.6206982-1.0222132-3.090837-2.8645997-6.1722212-5.4209729-8.8711473-11.0665575,3.3560981-21.7231811-.1757071-32.3973804.3270505-11.6190605.5472608-37.6137596,10.4362724-47.2817191,9.8134313-11.7073059-.7542224-19.9871739-8.975847-17.3387284-16.530744.6248415-1.7824091,3.1091578-3.6047531,5.2637265-4.445629l51.6260625-20.1483996c5.5206378-2.154571,35.2406142-.0332954,60.810826-7.5838258,18.8030696-5.5522868,36.6838878-11.9664449,55.1455256-18.6428289,12.7707134-4.6183436,25.194578-7.423147,38.3027881-10.7728207,13.7647622-3.5174491,26.6948256-7.8522705,40.8386838-10.034375L664.6156944.0186168c1.6817335-.2594566,4.3066271,2.2564875,4.1620144,3.5933042-.2008978,1.8571233-1.9717866,2.7982292-4.1447104,3.1315725l-64.3747992,9.8755926c-13.2811182,2.0374264-25.2119886,6.2595046-38.0944542,9.5696489-12.4696065,3.2040604-24.40843,5.6602825-36.6778813,9.843497l-43.9194373,14.9741358c-3.7133768,1.2660592-8.0669108,3.5462583-11.6720656,4.2546607-6.4885545,1.274982-12.68937,3.1888576-19.3017133,3.8253862l-43.1211125,4.1509975-53.7897569,19.9103259c2.3865815,13.8948434,26.3114993,9.0206143,32.6780047,2.4527821-2.9544823,3.0479113,24.5463822-2.7502672,25.8642492-4.2421823l.1075333-5.5788469c2.2693195,3.7857827,3.5859074,6.5651527,7.6074074,7.0871045,8.9751642,1.1648895,17.1714764,1.0299015,26.2338241-.5448109,3.5845018,2.888846,6.8926723,6.3293956,10.1007001,10.6532117,12.0535834-2.5263366,23.5542433-8.8568481,31.8933102-18.3314633,3.6446483-4.1409478,6.8894077-8.3973471,13.2898546-9.7498064-5.7110574,9.3417891-12.3952161,18.2454524-21.5529099,24.525887-6.222916,4.2677357-13.3738209,6.7299235-20.3862563,9.6511008-8.1242589,3.3843308-14.7261645,8.9671037-21.7276018,14.053496l-8.8946936,6.4618019c-1.5154684,1.1009549-2.2262428,5.390691-1.4181967,7.0424364,5.378532,10.9943795,28.176692,3.9775255,39.2180532-5.5641635,10.4541665-9.0342488,24.9184922-14.079134,38.606958-11.727777,12.0409358,2.06835,23.4691779.0398921,34.7622816-4.7992038,12.1310426-5.1981528,21.32226-14.0393188,27.0987175-25.9944405,7.1567936-14.811905,29.5781568-19.0780277,44.2339376-14.5502861-10.7343942,2.1809497-20.1438608,2.5577074-29.0889013,7.6868769-3.0815074,1.7669651-7.5692295,4.8235288-9.0191987,8.0237844-8.1223873,17.9270799-22.8247006,29.7923254-41.9263664,34.2346903-8.6766973,2.0178897-16.8306453,2.8862736-25.81579,1.2991679-12.3255623-2.1771459-26.2183181,1.000876-34.8858101,10.7155124,5.7901255,1.6315523,8.3028462-4.5094201,12.168084-6.8290656l4.3033217,1.3381961c7.8326292,2.4356984,23.0370986,7.9930719,30.976389,11.5964559ZM468.4291126,160.8500684c3.6419997-4.9661428,5.7892636-10.852009,7.1757447-16.8131749,4.4513567-2.7546808,8.5832807-5.9560261,12.6240912-9.3896795l7.2708095-6.1783248-10.0863765-5.6075563c-4.1901577,3.0367353-7.7046435,5.8711455-11.7275001,9.3690796-2.996984,2.6059226-8.9826523,5.1057761-10.6877748,8.9147226-8.7869042,19.6284136-4.0007249,24.8237284-7.9479073,42.9024842,11.7026118,5.4633901,12.9303657-16.4774082,13.3789134-23.1975511ZM499.8890732,153.2481025c6.2013069,1.7951259,6.2116822-3.6144046,9.1735476-6.5513612l10.0276295-9.9432986c-4.7810418-2.8249503-9.9804139-5.9440786-15.2358563-6.7526528-4.835311,2.1956797-6.8418719,8.1645845-9.0308597,12.3701957-4.8514464,9.3208819-6.2878581,18.4149988-4.3985008,29.0458005.1740082.9790877,1.1398325,2.9578128,2.0093226,3.2818925.695602.2592675,2.7349123-.0835936,3.3369041-.5256709,6.3159483-4.6381651,9.4599996-14.3041145,4.1178131-20.9249052ZM450.887125,177.22449l.37435-17.1287706c.0714898-3.2710901,6.5017206-23.0617591,9.1480625-26.9962828-8.4713167,2.9343263-15.241927,4.7394677-23.1046421,5.087955-3.4296458,12.3104412-2.9388544,24.5641664-2.1521035,36.9961723l.5781225,9.1353208c.0855683,1.3521247,1.6885507,3.855349,2.9439639,4.3392435,6.5103318,2.509384,12.1363612-7.9614186,12.2122467-11.4336383Z" fill="#fff"/>
  <path d="M75.0428054,63.6095863c17.4399928-11.4922544,37.8280259-12.7457866,50.4492665,6.7795859,10.316927,15.9605423,27.7113293,26.6896354,46.7135894,25.9447561,1.7518542-.0686718,2.5467855.428795,4.0964731.7397127,13.8704922,2.7828714,23.906102,9.2166619,34.9099435,17.3765713l23.6502484,17.5378647c1.555761,1.1536761,5.074413,2.0472582,6.7392011,1.5199719,6.7937564-2.1517783,5.9429802-14.0046251.5424808-20.9861247-14.563617-18.8271264-30.9309332-18.2477273-44.8376457-37.0618633l-10.863773-14.6973991c6.4425314-3.6757201,11.1500153,8.9965426,15.8423453,12.3946276,6.7225074-4.2436736,12.9256699-10.5604502,20.6255611-11.033179,7.0574611-.4332873,14.8465395,3.4087913,22.3762284-.7593679l2.8064851-1.5535671c.6702565-.3710294,2.4542565,1.7678912,3.393546,2.0597374,9.3455417,2.9037489,21.0515334,4.8319657,32.0860108,4.6644922,3.9990565,4.2681144,15.225633,16.2509772,22.8799211,17.022853,4.06867,7.8627403,19.8472657,23.63145,29.3312956,14.2223084-7.801441-9.1543931-34.9455203-40.8593003-42.7416328-45.7931038-7.4183668-4.6947455-33.3759868-9.3448339-48.5308564-19.5484067-7.7956757-5.2487251-14.9204843-8.5004693-24.3764504-9.0876188-23.8127441-1.4786051-47.0105448-4.5704416-70.5171265-9.0002923-26.5420106-5.0018819-45.3978991-6.7329357-70.446237,4.4123386L5.051959,51.7431016c-1.3129584.5842017-3.7968641-.0150194-4.5813553-.8491316-.7805431-.8299144-.6515093-4.0511276.8522445-4.7227369L74.0203626,13.7029336c35.8020805-15.9899919,57.5870856-9.1378306,93.7723867-2.7440464,20.020872,3.5376004,39.6871367,5.0241695,59.9582444,6.9073036,12.4607211,1.1575691,17.5610664,10.8599173,36.0255457,17.0920203l29.9976613,10.1247652c3.0055391,1.014425,6.9896492,4.1625999,9.2287161,6.6398531l28.0915489,31.0798565c3.7550887,4.1545455,8.5370955,9.245347,9.6893537,14.5806261,1.3108552,6.0696282-6.0014419,9.5085173-11.1344894,9.2303188-16.9091374-.9164335-22.3195442-15.2051215-35.3805953-22.3219328l16.3185737,40.9143459c1.4237901,3.569763,2.3805317,7.0776058.5355037,9.9699938-1.9401859,3.0415638-5.5102273,4.7493566-9.6544625,4.3900193-3.7186484-.3224356-7.8284527-3.5001022-10.8014211-5.4103887-4.0254436,1.6250837-8.2143657,4.0026011-12.7004174,2.5009424-3.241778-1.0851511-6.6310928-4.2489169-9.4344425-7.8476721-7.6481554,3.6162241-9.6020158,2.806414-16.1343201-2.7849785-.8631549,4.838435-3.1977786,9.9069462-6.5365665,11.9122454-4.3479156,2.6113882-10.1295815,1.8743508-14.2722016-.9545044-8.1521279-5.5668126-15.7730537-11.1152102-23.6228605-17.2355235-10.0951248-7.8709359-21.0770981-15.2985361-34.3691327-16.1152998-19.2859187-1.1850735-36.7646414-8.2158843-49.1488716-23.8337227-9.4436329,2.7892316-17.3491067,7.1863282-24.8332194,13.240917-22.4199792,18.1375882-39.6371356,37.1736907-63.9544903,52.2939554-1.0231822.6362035-3.8409218.7897738-4.8282654.2604076-.9873649-.5293777-1.7399454-2.9997479-1.4330118-4.2710168,26.7466647-16.2351522,45.3535373-38.1914886,70.749492-56.7291398,6.3041238-4.6016639,12.6811491-7.5266833,20.1193426-10.1200222l-5.7266199-7.5052579c-8.7654436-11.4879137-27.6695352-4.9814206-39.498538-3.357412ZM278.4520431,100.7660255c2.9827087,3.4113733,4.1117644,4.7011931,5.1102352,8.8152109,1.7158127,7.069695,11.329286,30.5166349,22.8184717,21.721272l-11.5073804-30.4850241c-3.7870096-10.0324379-8.5089299-19.2852747-14.9468372-27.9814772-10.5416818-1.0220713-21.2014459-2.8563735-31.1334649-5.6062486-12.4235185,5.6077058-28.835495-3.8599183-33.2046389,4.7371903l9.9733576,3.3122691c15.6924411,5.2116438,14.8406302-4.1269518,19.8303148-4.7462093,4.9050997-.6087599,10.3535303,11.2902812,23.146025,12.1838513,2.67133,5.836677,5.3766651,12.8598352,9.9139171,18.0491654ZM242.0156278,97.6349926l-8.3838213-10.4867671c-9.9973624-12.5050389-12.8972997-2.7822376-21.6853889-12.6840797l-4.760317,2.7854784c2.3226754,2.9245869,4.8379502,5.3062277,8.0502626,7.1773937,9.803264,5.7103833,18.3387924,11.6079031,27.1674957,18.6074024.4137425-1.2710419.3431742-4.4845613-.388231-5.3994277ZM263.7303276,124.1027502c-5.2647171-14.1385971-2.0789921-26.9959989-8.2451109-39.0672889-2.5107569-4.9152596-9.7341324-7.5931748-14.5477478-9.5456514-2.0229731,1.2273791-4.4928458,3.6452366-5.3839038,5.403668l6.3500516,7.7417747,7.3863533,9.2835543c-3.2906002,7.2368648,3.1330785,31.0943295,14.4403576,26.1839433ZM285.2237625,129.4038965c-3.640835-7.7226865-6.6749794-14.9541586-9.3255054-22.499655-4.6381829-6.4663566-8.323695-12.5707842-12.4907352-19.8546914l.1986181,4.9335242c1.8264766,7.1644349,2.8718738,13.6859485,3.2553787,21.1208972,2.3021383,5.6625676,10.2011476,23.5898216,18.3622438,16.299925Z" fill="#fff"/>
  <path d="M442.2953968,128.7136787l3.5440642-5.2372043c-1.2209212-3.0780269-2.9719446-6.3032227-4.9933591-9.572249,3.9242694,1.454772,6.6891804,5.4904797,6.3407145,10.3478269-.1153472,1.6078511-2.7136502,3.8331558-4.8914197,4.4616264Z" fill="#fff"/>
  <path d="M240.4445425,119.0444259c-3.0117766-.32267-5.9886725-2.025332-7.1961858-1.0259586-1.4140307,1.1702934-3.3932431,3.1063016-5.4315552,5.0227468-.3534172-2.1256069,2.2704321-5.4857825,4.6900275-6.5343706,2.6626473-1.1539203,6.1881837.5396813,7.9377134,2.5375824Z" fill="#fff"/>
  <g>
    <path d="M110.8916946,199.1522297l2.5340107-6.3880747c1.2954837.9492768,2.9098127,1.7422022,4.8424286,2.3787761,1.9314991.6365739,3.661975.953744,5.1891939.953744,2.7076726,0,4.8826333-.7404359,6.525999-2.2213078,1.6428073-1.4808719,2.4647694-3.3671408,2.4647694-5.6576899,0-1.7131655-.4573281-3.3034834-1.3714258-4.7731873-.9146561-1.4697039-3.2107893-3.0723065-6.8900746-4.8078079l-4.0964087-1.9086048c-3.4710028-1.6204714-5.8955675-3.541361-7.2720189-5.7626688-1.3770098-2.2213078-2.0655147-4.8949181-2.0655147-8.0185972,0-3.7948737,1.3418307-6.9420056,4.026609-9.4413957,2.6842198-2.4993901,6.1323283-3.7490851,10.3443254-3.7490851,5.6236276,0,9.5340898.9146561,11.7325032,2.7417348l-2.047646,6.040751c-.9258241-.6711946-2.338013-1.3200532-4.2348915-1.9443423-1.8979953-.6242891-3.6569494-.9369921-5.276304-.9369921-2.3603489,0-4.2175811.6711946-5.5711382,2.0135837-1.3541155,1.3423891-2.030894,3.0656058-2.030894,5.1718835,0,1.2954837.2429032,2.4759373.7287096,3.5402442.4863648,1.0643068,1.1631433,1.9555103,2.030894,2.6724935.8677507.7181,2.6434568,1.7243334,5.328235,3.0209339l4.1656501,1.9778462c3.4710028,1.6439241,5.9061771,3.6050184,7.3066396,5.8843995,1.3999041,2.2793812,2.1001354,5.1774675,2.1001354,8.6953758,0,3.8183264-1.5333613,7.0581524-4.598967,9.7194779-3.0667226,2.6613255-7.1681569,3.9914299-12.3059781,3.9914299-4.5124153,0-8.3653625-1.0643068-11.5588414-3.1929205Z" fill="#fff"/>
    <path d="M144.424061,182.8023323c0-5.739216,1.5445292-10.3728038,4.6341461-13.90188,3.0890585-3.5290762,7.1558721-5.2936143,12.2009992-5.2936143,5.322651,0,9.453122,1.6952967,12.3925298,5.0847734,2.938291,3.3905935,4.4085533,8.0945394,4.4085533,14.1107209,0,5.9938456-1.504883,10.7201274-4.5129737,14.1799622-3.0086492,3.4598348-7.1044995,5.1897523-12.2881094,5.1897523-5.2991983,0-9.4302277-1.7477862-12.3919714-5.2422417-2.9628605-3.4933387-4.443174-8.2028686-4.443174-14.1274728ZM151.3660666,182.8023323c0,9.3263656,3.2978994,13.9889901,9.8931398,13.9889901,3.0773321,0,5.4901705-1.249695,7.2373982-3.7490851s2.6211208-5.9123195,2.6211208-10.239905c0-9.2102188-3.286173-13.8158867-9.8585191-13.8158867-3.0086492,0-5.4097611,1.2273591-7.2027775,3.6798437-1.7935748,2.4536014-2.6903622,5.8319101-2.6903622,10.1360429Z" fill="#fff"/>
    <path d="M185.5232805,190.9594123v-41.8977289h6.5952404v40.7876334c0,1.990131.5723581,3.5569961,1.7181911,4.7028291,1.1452746,1.145833,2.6434568,1.7187495,4.495105,1.7187495v5.9011515c-8.5390243,0-12.8085364-3.7379171-12.8085364-11.2126345Z" fill="#fff"/>
    <path d="M206.4883385,190.9594123v-41.8977289h6.5957988v40.7876334c0,1.990131.5729165,3.5569961,1.7176327,4.7028291,1.145833,1.145833,2.6445736,1.7187495,4.4962218,1.7187495v5.9011515c-8.5401411,0-12.8096532-3.7379171-12.8096532-11.2126345Z" fill="#fff"/>
    <path d="M258.2451448,183.5316003h-26.7975265c0,4.3510383,1.1916216,7.6947263,3.5748649,10.0310641,2.105161,2.0370364,4.8133919,3.0555546,8.1224593,3.0555546,3.7725378,0,6.9196697-1.0989275,9.4425125-3.2978994l2.7763555,4.7553185c-1.0185182,1.0185182-2.5809162,1.8974369-4.6860771,2.6378728-2.6378728.9716128-5.5772806,1.4585359-8.8171066,1.4585359-4.6749092,0-8.6428863-1.5847339-11.906165-4.7564353-3.6329383-3.4933387-5.4499658-8.1917006-5.4499658-14.0928521,0-6.1323283,1.8628162-11.0495823,5.5895653-14.7528787,3.3314033-3.3090673,7.2770445-4.9630426,11.8358069-4.9630426,5.2991983,0,9.4536804,1.4920398,12.4623296,4.4772362,2.9159551,2.8701664,4.3733742,6.6773249,4.3733742,11.4203587,0,1.4585359-.1731034,2.800925-.5204271,4.0271673ZM242.242571,169.1606659c-2.9394078,0-5.4030604.9492768-7.3931913,2.8455969-1.8985537,1.8058596-2.9740285,4.0506201-3.228658,6.7342815h20.5847888c0-2.6602087-.83313-4.8826333-2.4993901-6.6639233-1.8281955-1.9443423-4.3164176-2.9159551-7.4635495-2.9159551Z" fill="#fff"/>
    <path d="M285.910422,170.6527057c-1.4350832-.9950655-2.8813344-1.4920398-4.3387535-1.4920398-2.3385714,0-4.380075,1.0754748-6.1267443,3.2275412-1.7477862,2.1520664-2.6211208,4.7441506-2.6211208,7.7762524v21.31294h-6.5957988v-37.177031h6.5957988v5.9357722c2.406696-4.4191628,5.9815608-6.6293027,10.7257114-6.6293027,1.1804537,0,2.8813344.2077241,5.1026422.6242891l-2.7417348,6.4215786Z" fill="#fff"/>
    <path d="M295.7002581,169.5068727h-4.3052496v-5.2065042h4.3052496v-7.7751356l6.594682-2.5340107v10.3091464h10.2052843v5.2065042h-10.2052843v18.4673431c0,3.1236792.526011,5.3461037,1.5791499,6.6650401s2.7484356,1.978963,5.0858902,1.978963c1.688596,0,3.4363821-.4288498,5.2416833-1.2854325l.9727296,5.7972894c-2.7322421.6946473-5.7286065,1.0419709-8.9918852,1.0419709-2.938291,0-5.4209291-1.0933435-7.4456807-3.2811474-2.0247516-2.1866871-3.0365691-4.9462907-3.0365691-8.2788107v-21.1052159Z" fill="#fff"/>
    <path d="M324.7196508,201.4773995v-31.6232032h-5.1026422v-5.5538279h11.6973241v37.177031h-6.594682ZM328.3291363,150.2421371c1.1335482,0,2.1006938.3986963,2.8980863,1.1972056.7985093.7985093,1.1983224,1.7533701,1.1983224,2.8645824,0,1.1335482-.3998131,2.099577-1.1983224,2.8980863-.7973925.7985093-1.7645381,1.1972056-2.8980863,1.1972056-1.1100955,0-2.0649563-.3986963-2.8634656-1.1972056s-1.1972056-1.7645381-1.1972056-2.8980863.3931123-2.0951098,1.1793369-2.8813344c.7873414-.7862246,1.7477862-1.1804537,2.8813344-1.1804537Z" fill="#fff"/>
    <path d="M362.7990532,197.2078874c-2.6389896,3.3090673-6.6773249,4.9641594-12.1150059,4.9641594-2.9159551,0-5.4443818-1.0587229-7.5841635-3.1761686-2.1408984-2.1174457-3.2107893-4.7497345-3.2107893-7.8979832,0-3.771421,1.6483913-6.9587576,4.9462907-9.5631265,3.2978994-2.6032521,7.5026373-3.9043198,12.6175643-3.9043198,1.3881778,0,2.9617437.3004182,4.7206978.9023714,0-6.0172983-2.6847782-9.0259475-8.0532179-9.0259475-4.1187446,0-7.2893293,1.1112123-9.510637,3.3325201l-2.7774723-5.5192072c1.249695-1.0174014,2.9796124-1.8918529,5.1897523-2.620004,2.209023-.729268,4.3220016-1.0933435,6.3344684-1.0933435,5.3918924,0,9.3084969,1.2262423,11.7509304,3.6787269,2.4413166,2.4536014,3.661975,6.3523372,3.661975,11.6984409v13.3289635c0,3.2632787.9716128,5.4387978,2.9159551,6.5265574v3.2978994c-2.6847782,0-4.6927779-.3819443-6.0228823-1.145833-1.3312212-.7638886-2.286082-2.0247516-2.8634656-3.7837058ZM362.1736473,183.2188973c-2.082825-.4623537-3.5402442-.6946473-4.3733742-.6946473-3.3325201,0-6.051919.8565827-8.15708,2.5686314-2.1062778,1.7131655-3.1594166,3.7379171-3.1594166,6.0753717,0,3.8641151,2.2793812,5.7961726,6.8381436,5.7961726,3.3325201,0,6.2830958-1.5847339,8.8517272-4.7553185v-8.99021Z" fill="#fff"/>
  </g>
</svg>